<svg xmlns="http://www.w3.org/2000/svg" xmlns:xlink="http://www.w3.org/1999/xlink" fill="none" stroke="none" stroke-linecap="square" stroke-miterlimit="10" width="600" height="371" xmlns:v="https://vecta.io/nano"><style><![CDATA[.B{clip-path:url(#A)}.C{stroke:#000}.D{stroke-opacity:0}.E{stroke-width:2}.F{stroke-width:3}.G{stroke-linejoin:round}.H{fill:#434343}]]></style><path fill="#fff" d="M0 0h600v371H0V0z"/><g stroke-linecap="butt"><path stroke="#333" d="M105.5 85.5v200"/><path d="M264.5 85.5v200m158-200v200m159-200v200" stroke="#efefef"/><path d="M158.5 85.5v200m53-200v200m106-200v200m52-200v200m106-200v200m53-200v200" class="C D"/></g><clipPath id="A"><path d="M105.55 85.167h475.9V285.45h-475.9V85.167z"/></clipPath><path d="M106 131v-30h21a2 2 0 0 1 2 2v26a2 2 0 0 1-2 2z" class="B C D E"/><path d="M106 131v-30h21a2 2 0 0 1 2 2v26a2 2 0 0 1-2 2z" class="B H"/><path d="M106 177v-30h108a2 2 0 0 1 2 2v26a2 2 0 0 1-2 2z" class="B C D E"/><path fill="#4a86e8" d="M106 177v-30h108a2 2 0 0 1 2 2v26a2 2 0 0 1-2 2z" class="B"/><path d="M106 223v-30h407a2 2 0 0 1 2 2v26a2 2 0 0 1-2 2z" class="B C D E"/><path fill="#c27ba0" d="M106 223v-30h407a2 2 0 0 1 2 2v26a2 2 0 0 1-2 2z" class="B"/><path d="M106 269v-30h207a2 2 0 0 1 2 2v26a2 2 0 0 1-2 2z" class="B C D E"/><path fill="#38761d" d="M106 269v-30h207a2 2 0 0 1 2 2v26a2 2 0 0 1-2 2z" class="B"/><use xlink:href="#C" stroke="#434343" class="F G"/><use xlink:href="#C" fill="#fff"/><use xlink:href="#D" stroke="#4a86e8" class="F G"/><use xlink:href="#D" fill="#fff"/><use xlink:href="#E" stroke="#c27ba0" class="F G"/><use xlink:href="#E" fill="#000"/><use xlink:href="#F" stroke="#38761d" class="F G"/><use xlink:href="#F" fill="#fff"/><path fill="#666" d="M273.97 348.45l1.97-11.375h2.953q1.39 0 2.39.703 1.016.688 1.453 1.922.438 1.22.25 2.734l-.078.563q-.344 2.484-1.937 3.97-1.578 1.484-3.97 1.484h-3.03zm3.22-10.14l-1.547 8.906 1.453.016q1.656 0 2.797-1.03 1.156-1.03 1.5-2.828.28-1.437.188-2.453-.11-1.203-.797-1.89-.687-.687-1.844-.72h-1.75zm11.922 9.297q-.984 1.03-2.516 1-1.22-.03-1.797-.86-.578-.844-.437-2.297l.906-5.453h1.422l-.922 5.484q-.03.344-.016.672.047.563.344.89.297.313.828.328 1.516.047 2.344-1.22l1.063-6.156h1.406l-1.47 8.453h-1.328l.172-.844zm8.89-6.328l-.656-.062q-1.36 0-2.14 1.22l-1.047 6.016h-1.406l1.47-8.453 1.36-.016-.203.984q.89-1.172 2.11-1.14.266 0 .672.11l-.156 1.344zm4.922 7.172q-.062-.234-.062-.453l.03-.437q-1.172 1.078-2.47 1.047-1.125-.016-1.828-.703-.687-.703-.625-1.734.078-1.344 1.172-2.094 1.094-.766 2.89-.766l1.47.016.094-.672q.078-.766-.297-1.203-.36-.437-1.11-.453-.72-.016-1.28.36-.562.36-.687.97l-1.422.016q.078-.75.578-1.312.516-.578 1.313-.89.797-.328 1.64-.312 1.328.03 2.063.813.734.766.61 2.03l-.687 4.188-.03.61q-.016.422.094.844l-.016.14h-1.437zm-2.22-1.094q.672.016 1.28-.328.61-.344 1.047-.937l.297-1.75h-1.062q-1.344 0-2.062.422-.703.422-.797 1.188-.062.594.28 1 .344.39 1.016.406zm9.78-9.406l-.36 2.047h1.53l-.187 1.11h-1.53l-.89 5.266q-.016.203 0 .375.047.61.656.61.266 0 .688-.078l-.11 1.188q-.5.14-1.03.14-.844-.016-1.266-.625-.422-.61-.328-1.64l.86-5.234h-1.484l.188-1.11h1.5l.36-2.047h1.406zm2.797 10.5h-1.406l1.47-8.453h1.406l-1.47 8.453zm1.156-11.547q.36-.016.594.22.25.234.25.61-.016.36-.25.594-.22.234-.594.25-.36.016-.594-.203-.234-.234-.234-.594.016-.375.234-.61.234-.25.594-.266zm6 2.938q1.063.016 1.813.578.766.563 1.125 1.547.375.984.25 2.156l-.016.172q-.14 1.234-.734 2.234-.578 1-1.516 1.563-.922.547-2.03.516-1.062-.016-1.828-.578-.75-.562-1.11-1.53-.344-.97-.25-2.14.125-1.312.72-2.36.594-1.047 1.516-1.61.938-.578 2.063-.547zm-2.875 4.53q-.047.484 0 1.016.078.922.547 1.47.484.547 1.266.578.703.016 1.297-.344.594-.375 1-1.125.406-.75.53-1.672.063-.72.016-1.203-.094-.953-.578-1.5-.47-.547-1.25-.578-1.094-.016-1.86.875-.766.875-.953 2.297l-.016.188zm9.984-4.39l-.203 1.078q1.14-1.25 2.594-1.22 1.203.03 1.766.828.578.797.422 2.234l-.922 5.547h-1.406l.922-5.562q.047-.39.016-.72-.14-1.094-1.297-1.11-1.266-.03-2.234 1.36l-1.047 6.03h-1.406l1.47-8.453 1.328-.016zm11.734 8.47h-1.406l1.47-8.453h1.406l-1.47 8.453zm1.156-11.547q.36-.016.594.22.25.234.25.61-.016.36-.25.594-.22.234-.594.25-.36.016-.594-.203-.234-.234-.234-.594.016-.375.234-.61.234-.25.594-.266zm4.11 3.078l-.203 1.078q1.14-1.25 2.594-1.22 1.203.03 1.766.828.578.797.422 2.234l-.922 5.547h-1.406l.922-5.562q.047-.39.016-.72-.14-1.094-1.297-1.11-1.266-.03-2.234 1.36l-1.047 6.03h-1.406l1.47-8.453 1.328-.016zm15.438 6.172q.11-.875-.97-1.234l-1.47-.422q-1.86-.64-1.797-2.125.063-1.125 1.016-1.828.97-.72 2.28-.703 1.28.016 2.078.75.797.72.766 1.89h-1.406q.016-.64-.406-1.03-.406-.406-1.094-.422-.734-.016-1.266.36-.484.36-.562.922-.11.734.89 1.078l.72.188q1.453.375 2.063.984.61.594.563 1.484-.047.797-.516 1.39-.47.578-1.25.89-.78.313-1.672.28-1.344-.016-2.22-.78-.875-.78-.844-1.984h1.422q0 .72.453 1.156.453.422 1.234.422.78.016 1.344-.328.563-.344.64-.937zm6.422 2.453q-1.578-.03-2.47-1.156-.89-1.14-.75-2.906l.03-.344q.14-1.25.75-2.28.61-1.047 1.484-1.578.89-.53 1.922-.5 1.297.03 2.03.875.75.828.828 2.25.016.516-.03 1.016l-.094.656h-5.516q-.14 1.14.375 1.953.516.797 1.547.828 1.25.03 2.313-1.125l.813.688q-.53.766-1.375 1.203-.828.438-1.86.422zm.89-7.594q-.875-.016-1.53.61-.64.61-1.03 1.828h4.11l.03-.125q.125-.984-.312-1.625-.437-.656-1.266-.687zm7.016 6.422q.766.016 1.375-.437.61-.47.797-1.203l1.328-.016q-.11.797-.64 1.453-.516.656-1.312 1.03-.78.375-1.61.344-1.047-.016-1.78-.547-.734-.547-1.078-1.5-.344-.953-.234-2.156l.047-.39q.14-1.22.703-2.172.563-.97 1.47-1.5.906-.53 2-.5 1.328.03 2.125.89.797.86.797 2.172h-1.312q-.016-.828-.47-1.344-.437-.516-1.203-.547-1.094-.016-1.828.828-.734.844-.906 2.36l-.03.203q-.047.5-.016 1.03.063.906.516 1.438.47.53 1.266.563zm9.125-7.594q1.063.016 1.813.578.766.563 1.125 1.547.375.984.25 2.156l-.016.172q-.14 1.234-.734 2.234-.578 1-1.516 1.563-.922.547-2.03.516-1.062-.016-1.828-.578-.75-.562-1.11-1.53-.344-.97-.25-2.14.125-1.312.72-2.36.594-1.047 1.516-1.61.938-.578 2.063-.547zm-2.875 4.53q-.047.484 0 1.016.078.922.547 1.47.484.547 1.266.578.703.016 1.297-.344.594-.375 1-1.125.406-.75.53-1.672.063-.72.016-1.203-.094-.953-.578-1.5-.47-.547-1.25-.578-1.094-.016-1.86.875-.766.875-.953 2.297l-.016.188zm9.984-4.39l-.203 1.078q1.14-1.25 2.594-1.22 1.203.03 1.766.828.578.797.422 2.234l-.922 5.547h-1.406l.922-5.562q.047-.39.016-.72-.14-1.094-1.297-1.11-1.266-.03-2.234 1.36l-1.047 6.03h-1.406l1.47-8.453 1.328-.016zm6.61 4.22q.156-1.28.703-2.312.563-1.047 1.375-1.562.813-.516 1.78-.5 1.422.03 2.172 1.03l.813-4.406h1.422l-2.078 12h-1.297l.156-.906q-1 1.094-2.47 1.063-1.172-.03-1.875-.922-.687-.89-.75-2.375-.016-.47.047-1.11zm1.36.813q-.03 1.125.39 1.75.422.61 1.234.625 1.234.047 2.188-1.234l.672-3.906q-.47-1.156-1.703-1.187-.844-.03-1.484.5-.625.53-.97 1.484-.328.938-.328 1.97zm12.47 1.14q.11-.875-.97-1.234l-1.47-.422q-1.86-.64-1.797-2.125.063-1.125 1.016-1.828.97-.72 2.28-.703 1.28.016 2.078.75.797.72.766 1.89h-1.406q.016-.64-.406-1.03-.406-.406-1.094-.422-.734-.016-1.266.36-.484.36-.562.922-.11.734.89 1.078l.72.188q1.453.375 2.063.984.61.594.563 1.484-.047.797-.516 1.39-.47.578-1.25.89-.78.313-1.672.28-1.344-.016-2.22-.78-.875-.78-.844-1.984h1.422q0 .72.453 1.156.453.422 1.234.422.78.016 1.344-.328.563-.344.64-.937z"/><path d="M27.363 120.745h-1.328l-5.016-7.672v7.672h-1.312v-9.953h1.313l5.03 7.703v-7.703h1.313v9.953zm1.813-3.766q0-1.094.422-1.953.438-.875 1.188-1.344.766-.47 1.75-.47 1.5 0 2.438 1.047.938 1.047.938 2.78v.094q0 1.078-.422 1.938-.406.844-1.187 1.328-.766.484-1.75.484-1.516 0-2.453-1.047-.922-1.047-.922-2.766v-.094zm1.266.156q0 1.22.563 1.97.578.75 1.547.75.953 0 1.516-.75.578-.766.578-2.125 0-1.22-.578-1.97-.578-.766-1.53-.766-.937 0-1.516.75-.578.75-.578 2.14zm17.594.453q-.187 1.578-1.172 2.438-.984.86-2.6.86-1.766 0-2.828-1.266-1.062-1.266-1.062-3.4v-.953q0-1.4.5-2.437.5-1.062 1.406-1.625.906-.562 2.094-.562 1.594 0 2.547.9.953.9 1.125 2.453h-1.328q-.172-1.187-.75-1.72-.562-.547-1.594-.547-1.25 0-1.97.938-.703.922-.703 2.64v.97q0 1.625.672 2.578.672.953 1.9.953 1.094 0 1.672-.484.594-.5.78-1.734h1.328zm1.14-.6q0-1.094.422-1.953.438-.875 1.188-1.344.766-.47 1.75-.47 1.5 0 2.438 1.047.938 1.047.938 2.78v.094q0 1.078-.422 1.938-.406.844-1.187 1.328-.766.484-1.75.484-1.516 0-2.453-1.047-.922-1.047-.922-2.766v-.094zm1.266.156q0 1.22.563 1.97.578.75 1.547.75.953 0 1.516-.75.578-.766.578-2.125 0-1.22-.578-1.97-.578-.766-1.53-.766-.937 0-1.516.75-.578.75-.578 2.14zm9.5 1.9l1.844-5.672h1.28l-2.64 7.4h-.97l-2.687-7.4h1.297l1.875 5.672zm7.64 1.86q-1.516 0-2.453-.984-.937-1-.937-2.656v-.22q0-1.1.422-1.97.422-.875 1.172-1.36.75-.484 1.64-.484 1.438 0 2.234.953.797.938.797 2.72v.516h-5q.016 1.094.625 1.78.625.672 1.563.672.672 0 1.125-.266.47-.28.828-.734l.766.594q-.922 1.438-2.78 1.438zm-.156-6.64q-.766 0-1.297.563-.516.563-.64 1.563h3.703v-.094q-.047-.97-.516-1.5-.47-.53-1.25-.53zm7.656.234q-.28-.047-.625-.047-1.234 0-1.687 1.063v5.25h-1.266v-7.4h1.234l.016.844q.625-.984 1.766-.984.375 0 .563.094v1.172zm6 6.266q-.1-.22-.187-.78-.875.922-2.1.922-1.094 0-1.797-.6-.687-.625-.687-1.578 0-1.156.875-1.797.875-.64 2.47-.64h1.234v-.578q0-.672-.406-1.062-.4-.4-1.156-.4-.687 0-1.14.344-.453.344-.453.828h-1.28q0-.562.4-1.078.406-.516 1.078-.812.672-.297 1.47-.297 1.28 0 2 .64.734.64.766 1.75v3.406q0 1.016.25 1.625v.1h-1.32zm-2.1-.97q.594 0 1.125-.297.547-.312.78-.812v-1.516h-1q-2.312 0-2.312 1.36 0 .594.4.938.4.328 1.016.328zm5.234-2.797q0-1.72.797-2.734.797-1.03 2.125-1.03 1.344 0 2.1.953l.063-.812h1.156v7.22q0 1.438-.86 2.25-.844.828-2.28.828-.797 0-1.562-.344-.766-.328-1.172-.922l.656-.766q.813 1 1.984 1 .922 0 1.438-.516.53-.516.53-1.47v-.625q-.766.875-2.078.875-1.297 0-2.1-1.047-.797-1.047-.797-2.86zm1.266.156q0 1.25.516 1.97.516.703 1.438.703 1.203 0 1.766-1.094v-3.375q-.594-1.047-1.75-1.047-.922 0-1.453.72-.516.703-.516 2.125zm10.1 3.75q-1.516 0-2.453-.984-.937-1-.937-2.656v-.22q0-1.1.422-1.97.422-.875 1.172-1.36.75-.484 1.64-.484 1.438 0 2.234.953.797.938.797 2.72v.516h-5q.016 1.094.625 1.78.625.672 1.563.672.672 0 1.125-.266.47-.28.828-.734l.766.594q-.922 1.438-2.78 1.438zm-.156-6.64q-.766 0-1.297.563-.516.563-.64 1.563h3.703v-.094q-.047-.97-.516-1.5-.47-.53-1.25-.53zM64.02 162.897v3.9h-1.312v-9.953h3.672q1.625 0 2.547.844.938.828.938 2.203 0 1.438-.906 2.234-.906.78-2.594.78H64.02zm0-1.078h2.36q1.047 0 1.6-.5.563-.5.563-1.422 0-.9-.562-1.422-.562-.547-1.53-.562h-2.44v3.906zm15.016 1.813q-.187 1.578-1.172 2.438-.984.86-2.6.86-1.766 0-2.828-1.266-1.062-1.266-1.062-3.4v-.953q0-1.4.5-2.437.5-1.062 1.406-1.625.906-.562 2.094-.562 1.594 0 2.547.9.953.9 1.125 2.453h-1.328q-.172-1.187-.75-1.72-.562-.547-1.594-.547-1.25 0-1.97.938-.703.922-.703 2.64v.97q0 1.625.672 2.578.672.953 1.9.953 1.094 0 1.672-.484.594-.5.78-1.734h1.328zm9.328-1.5q0 1.47-.5 2.563-.484 1.078-1.4 1.656-.906.578-2.1.578-1.172 0-2.078-.578-.906-.578-1.406-1.64-.5-1.078-.516-2.484v-.72q0-1.437.5-2.53.5-1.1 1.406-1.687.906-.594 2.094-.594 1.188 0 2.094.578.922.578 1.406 1.688.5 1.094.5 2.547v.625zm-1.312-.64q0-1.766-.72-2.72-.703-.953-1.97-.953-1.25 0-1.97.953-.703.953-.734 2.625v.734q0 1.72.72 2.703.734.97 1.984.97 1.28 0 1.97-.922.703-.922.72-2.656v-.734zm6.953 3.547l2.844-8.203h1.438l-3.703 9.953h-1.156l-3.687-9.953h1.438l2.828 8.203zm-36.252 44.18q0 1.688-.78 2.72-.766 1.03-2.078 1.03-1.344 0-2.125-.86v3.563h-1.266V205.44h1.156l.063.813q.78-.953 2.156-.953 1.328 0 2.094 1 .78 1 .78 2.797v.125zm-1.266-.156q0-1.25-.53-1.97-.53-.72-1.47-.72-1.14 0-1.72 1.016v3.53q.578 1.016 1.734 1.016.922 0 1.453-.72.53-.734.53-2.156zm4.28-2.734q.844-1.03 2.188-1.03 2.344 0 2.375 2.64v4.9h-1.266v-4.9q-.016-.797-.375-1.172-.36-.4-1.1-.4-.625 0-1.094.328-.453.328-.72.86v5.266H59.5v-10.5h1.266v4zm12.984 2.9q0 1.688-.78 2.72-.766 1.03-2.078 1.03-1.344 0-2.125-.86v3.563h-1.266V205.44h1.156l.063.813q.78-.953 2.156-.953 1.328 0 2.094 1 .78 1 .78 2.797v.125zm-1.266-.156q0-1.25-.53-1.97-.53-.72-1.47-.72-1.14 0-1.72 1.016v3.53q.578 1.016 1.734 1.016.922 0 1.453-.72.53-.734.53-2.156zm2.72 0q0-1.703.797-2.734.813-1.03 2.1-1.03 1.313 0 2.063.9v-3.86h1.266v10.5h-1.156l-.062-.797q-.766.938-2.1.938-1.297 0-2.1-1.047-.797-1.062-.797-2.766v-.094zm1.266.156q0 1.25.516 1.97.516.703 1.438.703 1.203 0 1.75-1.078v-3.406q-.562-1.03-1.734-1.03-.937 0-1.453.72-.516.703-.516 2.125zm13.297 0q0 1.688-.78 2.72-.78 1.03-2.094 1.03-1.4 0-2.156-1l-.062.86h-1.172v-10.5h1.266v3.922q.766-.953 2.1-.953 1.36 0 2.125 1.016.766 1.016.766 2.797v.1zm-1.266-.156q0-1.28-.5-1.984-.5-.703-1.437-.703-1.25 0-1.797 1.156v3.203q.578 1.156 1.813 1.156.906 0 1.406-.703.516-.703.516-2.125zm2.703 0q0-1.72.797-2.734.797-1.03 2.125-1.03 1.344 0 2.1.953l.063-.812h1.156v7.22q0 1.438-.86 2.25-.844.828-2.28.828-.797 0-1.562-.344-.766-.328-1.172-.922l.656-.766q.813 1 1.984 1 .922 0 1.438-.516.53-.516.53-1.47v-.625q-.766.875-2.078.875-1.297 0-2.1-1.047-.797-1.047-.797-2.86zm1.266.156q0 1.25.516 1.97.516.703 1.438.703 1.203 0 1.766-1.094v-3.375q-.594-1.047-1.75-1.047-.922 0-1.453.72-.516.703-.516 2.125zm-48.515 43.5l2.375-3.812h1.547l-3.14 4.938 3.22 5.016h-1.562l-2.437-3.9-2.47 3.9h-1.55l3.22-5.016-3.14-4.937h1.53l2.406 3.813zm5.25 2.375q0-1.703.797-2.734.813-1.03 2.1-1.03 1.313 0 2.063.9v-3.86h1.266v10.5h-1.156l-.062-.797q-.766.938-2.1.938-1.297 0-2.1-1.047-.797-1.062-.797-2.766v-.094zm1.266.156q0 1.25.516 1.97.516.703 1.438.703 1.203 0 1.75-1.078v-3.406q-.562-1.03-1.734-1.03-.937 0-1.453.72-.516.703-.516 2.125zm10.1 3.75q-1.516 0-2.453-.984-.937-1-.937-2.656v-.22q0-1.1.422-1.97.422-.875 1.172-1.36.75-.484 1.64-.484 1.438 0 2.234.953.797.938.797 2.72v.516h-5q.016 1.094.625 1.78.625.672 1.563.672.672 0 1.125-.266.47-.28.828-.734l.766.594Q62.442 259 60.584 259zm-.156-6.64q-.766 0-1.297.563-.516.563-.64 1.563h3.703v-.094q-.047-.97-.516-1.5-.47-.53-1.25-.53zm10.344 2.9q0 1.688-.78 2.72-.78 1.03-2.094 1.03-1.4 0-2.156-1l-.062.86h-1.172v-10.5h1.266v3.922q.766-.953 2.1-.953 1.36 0 2.125 1.016.766 1.016.766 2.797v.1zm-1.266-.156q0-1.28-.5-1.984-.5-.703-1.437-.703-1.25 0-1.797 1.156v3.203q.578 1.156 1.813 1.156.906 0 1.406-.703.516-.703.516-2.125zm7.578 3.03q-.75.875-2.172.875-1.187 0-1.812-.687-.6-.687-.6-2.03v-4.812h1.25v4.766q0 1.688 1.375 1.688 1.453 0 1.922-1.078v-5.375H78.3v7.4h-1.203l-.016-.734zm3.125-3.03q0-1.72.797-2.734.797-1.03 2.125-1.03 1.344 0 2.1.953l.063-.812h1.156v7.22q0 1.438-.86 2.25-.844.828-2.28.828-.797 0-1.562-.344-.766-.328-1.172-.922l.656-.766q.813 1 1.984 1 .922 0 1.438-.516.53-.516.53-1.47v-.625q-.766.875-2.078.875-1.297 0-2.1-1.047-.797-1.047-.797-2.86zm1.266.156q0 1.25.516 1.97.516.703 1.438.703 1.203 0 1.766-1.094v-3.375q-.594-1.047-1.75-1.047-.922 0-1.453.72-.516.703-.516 2.125zm11.75-1.984h.938q.906-.016 1.406-.47.516-.453.516-1.234 0-1.75-1.734-1.75-.828 0-1.312.47-.484.47-.484 1.234h-1.266q0-1.187.86-1.97.875-.78 2.203-.78 1.406 0 2.203.75.797.75.797 2.063 0 .656-.422 1.266-.406.6-1.14.906.828.266 1.266.875.453.594.453 1.453 0 1.344-.875 2.14-.875.78-2.28.78-1.4 0-2.28-.75-.875-.766-.875-2.016h1.28q0 .78.5 1.266.516.47 1.375.47.922 0 1.406-.484.484-.484.484-1.375 0-.86-.53-1.328-.53-.47-1.547-.484h-.937v-1.03z" class="H"/><path d="M108.613 301.2q0 2.22-.766 3.313-.75 1.078-2.36 1.078-1.594 0-2.36-1.047-.766-1.062-.797-3.172v-1.687q0-2.187.75-3.25.766-1.078 2.4-1.078 1.6 0 2.36 1.03.766 1.03.78 3.172v1.64zm-1.266-1.72q0-1.6-.453-2.344-.437-.734-1.422-.734-.97 0-1.422.734-.437.72-.453 2.234v2.03q0 1.6.47 2.4.47.766 1.422.766.938 0 1.4-.72.453-.734.47-2.297v-2.062zm156.18 5.97h-6.516v-.906l3.438-3.828q.766-.875 1.063-1.406.297-.547.297-1.14 0-.766-.484-1.266-.47-.5-1.25-.5-.937 0-1.47.53-.516.53-.516 1.5h-1.266q0-1.375.875-2.22.9-.86 2.375-.86 1.4 0 2.188.734.813.72.813 1.938 0 1.47-1.875 3.5l-2.656 2.9h4.984v1.03zm7.72-4.25q0 2.22-.766 3.313-.75 1.078-2.36 1.078-1.594 0-2.36-1.047-.766-1.062-.797-3.172v-1.687q0-2.187.75-3.25.766-1.078 2.4-1.078 1.6 0 2.36 1.03.766 1.03.78 3.172v1.64zm-1.266-1.72q0-1.6-.453-2.344-.437-.734-1.422-.734-.97 0-1.422.734-.437.72-.453 2.234v2.03q0 1.6.47 2.4.47.766 1.422.766.938 0 1.4-.72.453-.734.47-2.297v-2.062zM421 302.106h1.375v1.03H421v2.313h-1.28v-2.312h-4.53v-.75l4.453-6.9h1.36v6.6zm-4.375 0h3.094v-4.875l-.14.266-2.953 4.6zm13.266-.906q0 2.22-.766 3.313-.75 1.078-2.36 1.078-1.594 0-2.36-1.047-.766-1.062-.797-3.172v-1.687q0-2.187.75-3.25.766-1.078 2.4-1.078 1.6 0 2.36 1.03.766 1.03.78 3.172v1.64zm-1.266-1.72q0-1.6-.453-2.344-.437-.734-1.422-.734-.97 0-1.422.734-.437.72-.453 2.234v2.03q0 1.6.47 2.4.47.766 1.422.766.938 0 1.4-.72.453-.734.47-2.297v-2.062zm150.632-3.983v1.063h-.234q-1.484.03-2.36.875-.875.844-1.016 2.4.797-.906 2.156-.906 1.297 0 2.063.922.78.906.78 2.36 0 1.547-.844 2.47-.828.922-2.234.922-1.422 0-2.312-1.094-.9-1.1-.9-2.828v-.484q0-2.75 1.172-4.203 1.172-1.453 3.484-1.484h.234zm-1.672 4.484q-.64 0-1.187.4-.547.375-.766.97v.47q0 1.234.547 1.984.563.75 1.4.75.86 0 1.344-.625.484-.64.484-1.656 0-1.03-.5-1.656-.484-.625-1.312-.625zm10.938 1.22q0 2.22-.766 3.313-.75 1.078-2.36 1.078-1.594 0-2.36-1.047-.766-1.062-.797-3.172v-1.687q0-2.187.75-3.25.766-1.078 2.4-1.078 1.6 0 2.36 1.03.766 1.03.78 3.172v1.64zm-1.266-1.72q0-1.6-.453-2.344-.437-.734-1.422-.734-.97 0-1.422.734-.437.72-.453 2.234v2.03q0 1.6.47 2.4.47.766 1.422.766.938 0 1.4-.72.453-.734.47-2.297v-2.062zM251.156 67.566h5.234l-.22 1.234h-6.703l1.97-11.375h1.484l-1.766 10.14zm10.78-7.375q1.063.016 1.813.578.766.563 1.125 1.547.375.984.25 2.156l-.016.172q-.14 1.234-.734 2.234-.578 1-1.516 1.563-.922.547-2.03.516-1.062-.016-1.828-.578-.75-.562-1.1-1.53-.344-.97-.25-2.14.125-1.312.72-2.36.594-1.047 1.516-1.6.938-.578 2.063-.547zm-2.875 4.53q-.047.484 0 1.016.078.922.547 1.47.484.547 1.266.578.703.016 1.297-.344.594-.375 1-1.125.406-.75.53-1.672.063-.72.016-1.203-.094-.953-.578-1.5-.47-.547-1.25-.578-1.094-.016-1.86.875-.766.875-.953 2.297l-.016.188zm14.766 2.078l2.703-6.453h1.453L274.14 68.8h-1.156l-.875-6.4-3.047 6.4h-1.14L267 60.347h1.36l.516 6.297 3-6.297h1.14l.813 6.453zm8.078 2.156q-1.578-.03-2.47-1.156-.9-1.14-.75-2.906l.03-.344q.14-1.25.75-2.28.6-1.047 1.484-1.578.9-.53 1.922-.5 1.297.03 2.03.875.75.828.828 2.25.016.516-.03 1.016l-.094.656h-5.516q-.14 1.14.375 1.953.516.797 1.547.828 1.25.03 2.313-1.125l.813.688q-.53.766-1.375 1.203-.828.438-1.86.422zm.9-7.594q-.875-.016-1.53.6-.64.6-1.03 1.828h4.1l.03-.125q.125-.984-.312-1.625-.437-.656-1.266-.687zm8.703.266l-.656-.062q-1.36 0-2.14 1.22l-1.047 6.016h-1.406l1.47-8.453 1.36-.016-.203.984q.9-1.172 2.1-1.14.266 0 .672.1l-.156 1.344zm5.28 7.172h-1.406l1.47-8.453h1.406l-1.47 8.453zm1.156-11.547q.36-.016.594.22.25.234.25.6-.016.36-.25.594-.22.234-.594.25-.36.016-.594-.203-.234-.234-.234-.594.016-.375.234-.6.234-.25.594-.266zm6.547 9.25q.1-.875-.97-1.234l-1.47-.422q-1.86-.64-1.797-2.125.063-1.125 1.016-1.828.97-.72 2.28-.703 1.28.016 2.078.75.797.72.766 1.9h-1.406q.016-.64-.406-1.03-.406-.406-1.094-.422-.734-.016-1.266.36-.484.36-.562.922-.1.734.9 1.078l.72.188q1.453.375 2.063.984.6.594.563 1.484-.047.797-.516 1.4-.47.578-1.25.9-.78.313-1.672.28-1.344-.016-2.22-.78-.875-.78-.844-1.984h1.422q0 .72.453 1.156.453.422 1.234.422.78.016 1.344-.328.563-.344.64-.937zm14.438-1.9q-.156 1.297-.72 2.344-.547 1.03-1.344 1.53-.78.5-1.75.484-1.53-.03-2.266-1.156l-.297.984h-1.297l2.078-12h1.422l-.86 4.484q1.016-1.125 2.47-1.094 1.22.03 1.9.906.688.86.734 2.375 0 .5-.047.97l-.016.172zm-1.344-.828q.016-1.14-.4-1.734-.406-.6-1.234-.64-1.328-.03-2.234 1.328l-.64 3.672q.47 1.297 1.766 1.328.828.03 1.438-.484.625-.53.938-1.47.328-.953.36-2zm6.328 5.172q-1.578-.03-2.47-1.156-.9-1.14-.75-2.906l.03-.344q.14-1.25.75-2.28.6-1.047 1.484-1.578.9-.53 1.922-.5 1.297.03 2.03.875.75.828.828 2.25.016.516-.03 1.016l-.094.656h-5.516q-.14 1.14.375 1.953.516.797 1.547.828 1.25.03 2.313-1.125l.813.688q-.53.766-1.375 1.203-.828.438-1.86.422zm.9-7.594q-.875-.016-1.53.6-.64.6-1.03 1.828h4.1l.03-.125q.125-.984-.312-1.625-.437-.656-1.266-.687zm7.188-3.062l-.36 2.047h1.53l-.187 1.1h-1.53l-.9 5.266q-.016.203 0 .375.047.6.656.6.266 0 .688-.078l-.1 1.188q-.5.14-1.03.14-.844-.016-1.266-.625-.422-.6-.328-1.64l.86-5.234h-1.484l.188-1.1h1.5l.36-2.047h1.406zm5 0l-.36 2.047h1.53l-.187 1.1h-1.53l-.9 5.266q-.016.203 0 .375.047.6.656.6.266 0 .688-.078l-.1 1.188q-.5.14-1.03.14-.844-.016-1.266-.625-.422-.6-.328-1.64l.86-5.234h-1.484l.188-1.1h1.5l.36-2.047h1.406zm4.922 10.656q-1.578-.03-2.47-1.156-.9-1.14-.75-2.906l.03-.344q.14-1.25.75-2.28.6-1.047 1.484-1.578.9-.53 1.922-.5 1.297.03 2.03.875.75.828.828 2.25.016.516-.03 1.016l-.094.656h-5.516q-.14 1.14.375 1.953.516.797 1.547.828 1.25.03 2.313-1.125l.813.688q-.53.766-1.375 1.203-.828.438-1.86.422zm.9-7.594q-.875-.016-1.53.6-.64.6-1.03 1.828h4.1l.03-.125q.125-.984-.312-1.625-.437-.656-1.266-.687zm8.703.266l-.656-.062q-1.36 0-2.14 1.22l-1.047 6.016h-1.406l1.47-8.453 1.36-.016-.203.984q.9-1.172 2.1-1.14.266 0 .672.1l-.156 1.344z" fill="#999"/><path d="M51.875 33.425v6.125h-2.062V23.91h5.766q2.578 0 4.03 1.313 1.453 1.313 1.453 3.47 0 2.28-1.422 3.516-1.422 1.22-4.078 1.22h-3.687zm0-1.687h3.703q1.656 0 2.53-.78.89-.78.89-2.25 0-1.39-.89-2.22-.875-.844-2.406-.875h-3.828v6.125zm23.97 7.812h-2.078v-7.234h-7.89v7.234h-2.062V23.91h2.063v6.72h7.89v-6.72h2.078v15.64zm6.03-6.125v6.125h-2.062V23.91h5.766q2.578 0 4.03 1.313 1.453 1.313 1.453 3.47 0 2.28-1.422 3.516-1.422 1.22-4.078 1.22h-3.687zm0-1.687h3.703q1.656 0 2.53-.78.89-.78.89-2.25 0-1.39-.89-2.22-.875-.844-2.406-.875h-3.828v6.125zm28.453 2.844q-.297 2.484-1.844 3.844-1.53 1.344-4.094 1.344-2.766 0-4.437-1.984-1.672-2-1.672-5.328v-1.5q0-2.187.78-3.828.78-1.656 2.203-2.547 1.422-.89 3.313-.89 2.484 0 3.984 1.39 1.516 1.39 1.766 3.86h-2.078q-.266-1.875-1.172-2.703-.89-.844-2.5-.844-1.984 0-3.11 1.47-1.11 1.453-1.11 4.14v1.516q0 2.547 1.063 4.063 1.063 1.5 2.97 1.5 1.72 0 2.64-.78.922-.78 1.22-2.72h2.078zm1.656-.953q0-1.703.672-3.062.672-1.375 1.86-2.11 1.203-.75 2.734-.75 2.375 0 3.844 1.656 1.47 1.64 1.47 4.36v.14q0 1.703-.656 3.047-.64 1.344-1.86 2.11-1.203.75-2.766.75-2.375 0-3.844-1.64-1.453-1.656-1.453-4.36v-.14zm1.984.234q0 1.938.89 3.11.906 1.172 2.422 1.172 1.5 0 2.39-1.187.906-1.187.906-3.328 0-1.906-.922-3.094-.906-1.187-2.406-1.187-1.47 0-2.375 1.172-.906 1.172-.906 3.344zm11.047-.22q0-2.672 1.266-4.297 1.28-1.64 3.328-1.64 2.047 0 3.234 1.406V23.05h1.984v16.5H133l-.094-1.25q-1.187 1.47-3.312 1.47-2.03 0-3.312-1.656-1.266-1.656-1.266-4.328v-.14zm2 .22q0 1.984.813 3.11.812 1.11 2.25 1.11 1.89 0 2.766-1.703v-5.344q-.89-1.64-2.734-1.64-1.47 0-2.28 1.14-.812 1.125-.812 3.328zm15.312 5.906q-2.36 0-3.844-1.547Q137 36.66 137 34.066v-.375q0-1.72.656-3.078.672-1.36 1.844-2.125 1.188-.78 2.578-.78 2.266 0 3.516 1.5 1.266 1.484 1.266 4.28v.813h-7.875q.047 1.72 1 2.78.97 1.063 2.453 1.063 1.047 0 1.78-.422.734-.437 1.28-1.14l1.203.938q-1.453 2.25-4.375 2.25zm-.25-10.422q-1.203 0-2.016.875-.812.875-1.016 2.453h5.828v-.156q-.094-1.516-.828-2.344-.72-.828-1.97-.828zm24.25 5.234q-.297 2.484-1.844 3.844-1.53 1.344-4.094 1.344-2.766 0-4.437-1.984-1.672-2-1.672-5.328v-1.5q0-2.187.78-3.828.78-1.656 2.203-2.547 1.422-.89 3.313-.89 2.484 0 3.984 1.39 1.516 1.39 1.766 3.86h-2.078q-.266-1.875-1.172-2.703-.89-.844-2.5-.844-1.984 0-3.11 1.47-1.11 1.453-1.11 4.14v1.516q0 2.547 1.063 4.063 1.063 1.5 2.97 1.5 1.72 0 2.64-.78.922-.78 1.22-2.72h2.078zm1.656-.953q0-1.703.672-3.062.672-1.375 1.86-2.11 1.203-.75 2.734-.75 2.375 0 3.844 1.656 1.47 1.64 1.47 4.36v.14q0 1.703-.656 3.047-.64 1.344-1.86 2.11-1.203.75-2.766.75-2.375 0-3.844-1.64-1.453-1.656-1.453-4.36v-.14zm1.984.234q0 1.938.89 3.11.906 1.172 2.422 1.172 1.5 0 2.39-1.187.906-1.187.906-3.328 0-1.906-.922-3.094-.906-1.187-2.406-1.187-1.47 0-2.375 1.172-.906 1.172-.906 3.344zm15.375 2.984l2.875-8.922h2.03l-4.172 11.625h-1.516l-4.203-11.625h2.03l2.953 8.922zm11.984 2.922q-2.36 0-3.844-1.547Q192 36.66 192 34.066v-.375q0-1.72.656-3.078.672-1.36 1.844-2.125 1.188-.78 2.578-.78 2.266 0 3.516 1.5 1.266 1.484 1.266 4.28v.813h-7.875q.047 1.72 1 2.78.97 1.063 2.453 1.063 1.047 0 1.78-.422.734-.437 1.28-1.14l1.203.938q-1.453 2.25-4.375 2.25zm-.25-10.422q-1.203 0-2.016.875-.812.875-1.016 2.453h5.828v-.156q-.094-1.516-.828-2.344-.72-.828-1.97-.828zm13.047.36q-.453-.078-.984-.078-1.953 0-2.656 1.672v8.25H204.5V27.925h1.938l.03 1.344q.984-1.562 2.766-1.562.594 0 .89.156v1.844zm8.563 9.844q-.172-.344-.28-1.22-1.39 1.438-3.312 1.438-1.72 0-2.828-.97-1.094-.984-1.094-2.47 0-1.812 1.375-2.812 1.39-1.016 3.89-1.016h1.938v-.906q0-1.047-.625-1.656-.625-.625-1.844-.625-1.062 0-1.78.547-.72.53-.72 1.28h-2q0-.86.61-1.672.625-.812 1.688-1.28 1.063-.484 2.328-.484 2 0 3.14 1.016 1.14 1 1.188 2.766v5.344q0 1.594.406 2.547v.172h-2.078zm-3.312-1.516q.938 0 1.78-.484.844-.484 1.22-1.25v-2.39h-1.562q-3.656 0-3.656 2.14 0 .938.625 1.47.625.516 1.594.516zm7.656-4.39q0-2.72 1.25-4.328 1.266-1.61 3.344-1.61 2.125 0 3.313 1.516l.094-1.297h1.813V39.27q0 2.266-1.344 3.563-1.328 1.297-3.578 1.297-1.266 0-2.47-.547-1.203-.53-1.828-1.47l1.03-1.187q1.28 1.578 3.125 1.578 1.453 0 2.266-.812.813-.812.813-2.297v-1q-1.203 1.375-3.266 1.375-2.03 0-3.297-1.64-1.266-1.656-1.266-4.484zm2 .22q0 1.97.797 3.094.813 1.125 2.266 1.125 1.875 0 2.766-1.72v-5.297q-.922-1.672-2.75-1.672-1.453 0-2.266 1.14-.812 1.125-.812 3.328zm15.297 5.906q-2.36 0-3.844-1.547Q235 36.66 235 34.066v-.375q0-1.72.656-3.078.672-1.36 1.844-2.125 1.188-.78 2.578-.78 2.266 0 3.516 1.5 1.266 1.484 1.266 4.28v.813h-7.875q.047 1.72 1 2.78.97 1.063 2.453 1.063 1.047 0 1.78-.422.734-.437 1.28-1.14l1.203.938q-1.453 2.25-4.375 2.25zm-.25-10.422q-1.203 0-2.016.875-.812.875-1.016 2.453h5.828v-.156q-.094-1.516-.828-2.344-.72-.828-1.97-.828zm23.547-3.734h-5.03V39.55h-2.047V25.613h-5.016V23.91h12.094v1.703zm1.36 8.016q0-1.703.672-3.062.672-1.375 1.86-2.11 1.203-.75 2.734-.75 2.375 0 3.844 1.656 1.47 1.64 1.47 4.36v.14q0 1.703-.656 3.047-.64 1.344-1.86 2.11-1.203.75-2.766.75-2.375 0-3.844-1.64-1.453-1.656-1.453-4.36v-.14zm1.984.234q0 1.938.89 3.11.906 1.172 2.422 1.172 1.5 0 2.39-1.187.906-1.187.906-3.328 0-1.906-.922-3.094-.906-1.187-2.406-1.187-1.47 0-2.375 1.172-.906 1.172-.906 3.344zm11.016-.234q0-1.703.672-3.062.672-1.375 1.86-2.11 1.203-.75 2.734-.75 2.375 0 3.844 1.656 1.47 1.64 1.47 4.36v.14q0 1.703-.656 3.047-.64 1.344-1.86 2.11-1.203.75-2.766.75-2.375 0-3.844-1.64-1.453-1.656-1.453-4.36v-.14zm1.984.234q0 1.938.89 3.11.906 1.172 2.422 1.172 1.5 0 2.39-1.187.906-1.187.906-3.328 0-1.906-.922-3.094-.906-1.187-2.406-1.187-1.47 0-2.375 1.172-.906 1.172-.906 3.344zm13.688 5.688h-1.984v-16.5h1.984v16.5zm8.156 0V23.91h5.11q2.547 0 3.828 1.063 1.297 1.047 1.297 3.11 0 1.094-.625 1.938-.625.844-1.703 1.297 1.266.36 2 1.36.75.984.75 2.36 0 2.11-1.375 3.313-1.36 1.203-3.86 1.203h-5.422zm2.063-7.312v5.625h3.406q1.438 0 2.266-.75.844-.75.844-2.047 0-2.828-3.078-2.828h-3.437zm0-1.656H307q1.344 0 2.156-.672.813-.687.813-1.844 0-1.28-.75-1.86-.75-.594-2.297-.594h-3.047v4.97zm16.453 9.187q-2.36 0-3.844-1.547Q315 36.66 315 34.066v-.375q0-1.72.656-3.078.672-1.36 1.844-2.125 1.188-.78 2.578-.78 2.266 0 3.516 1.5 1.266 1.484 1.266 4.28v.813h-7.875q.047 1.72 1 2.78.97 1.063 2.453 1.063 1.047 0 1.78-.422.734-.437 1.28-1.14l1.203.938q-1.453 2.25-4.375 2.25zm-.25-10.422q-1.203 0-2.016.875-.812.875-1.016 2.453h5.828v-.156q-.094-1.516-.828-2.344-.72-.828-1.97-.828zm9.313-1.422l.063 1.47q1.328-1.687 3.47-1.687 3.688 0 3.72 4.156v7.687h-1.984v-7.687q-.016-1.266-.578-1.86-.562-.61-1.75-.61-.97 0-1.703.516-.72.516-1.14 1.36v8.28H327.5V27.925h1.89zm14.78 10.22q1.063 0 1.844-.64.797-.656.89-1.61h1.875q-.047.984-.687 1.89-.625.906-1.687 1.453-1.062.53-2.234.53-2.375 0-3.78-1.578-1.406-1.594-1.406-4.344v-.328q0-1.703.625-3.016.625-1.328 1.78-2.062 1.172-.734 2.766-.734 1.953 0 3.25 1.172 1.297 1.172 1.375 3.047h-1.875q-.094-1.125-.86-1.844-.766-.734-1.89-.734-1.516 0-2.36 1.094-.828 1.078-.828 3.14v.375q0 2.016.828 3.11.828 1.078 2.375 1.078zm9.313-8.812q1.328-1.625 3.438-1.625 3.688 0 3.72 4.156v7.687h-1.984v-7.687q-.016-1.266-.578-1.86-.562-.61-1.75-.61-.97 0-1.703.516-.72.516-1.14 1.36v8.28H351.5v-16.5h1.984v6.28zm11.89-1.406l.047 1.297q1.28-1.516 3.453-1.516 2.438 0 3.313 1.875.594-.844 1.516-1.36.938-.516 2.203-.516 3.813 0 3.89 4.063v7.78h-2v-7.672q0-1.25-.578-1.86-.562-.625-1.89-.625-1.11 0-1.844.672-.734.656-.844 1.766v7.72h-2v-7.61q0-2.547-2.484-2.547-1.953 0-2.672 1.672v8.484H363.5V27.925h1.875zm24.313 11.625q-.172-.344-.28-1.22-1.39 1.438-3.312 1.438-1.72 0-2.828-.97-1.094-.984-1.094-2.47 0-1.812 1.375-2.812 1.39-1.016 3.89-1.016h1.938v-.906q0-1.047-.625-1.656-.625-.625-1.844-.625-1.062 0-1.78.547-.72.53-.72 1.28h-2q0-.86.61-1.672.625-.812 1.688-1.28 1.063-.484 2.328-.484 2 0 3.14 1.016 1.14 1 1.188 2.766v5.344q0 1.594.406 2.547v.172h-2.078zm-3.312-1.516q.938 0 1.78-.484.844-.484 1.22-1.25v-2.39h-1.562q-3.656 0-3.656 2.14 0 .938.625 1.47.625.516 1.594.516zm13.75-8.328q-.453-.078-.984-.078-1.953 0-2.656 1.672v8.25H394.5V27.925h1.938l.03 1.344q.984-1.562 2.766-1.562.594 0 .89.156v1.844zm4.625 4.47l-1.25 1.297v4.078h-1.984v-16.5h1.984v9.984l1.063-1.28 3.625-3.828h2.422l-4.53 4.86 5.047 6.766h-2.328l-4.047-5.375zm12.672-.97q0-2.437.656-4.672.656-2.234 1.938-4.047 1.297-1.828 2.672-2.594l.406 1.313q-1.562 1.203-2.562 3.688-1 2.47-1.11 5.516v.922q0 4.14 1.516 7.203.906 1.813 2.156 2.844l-.406 1.22q-1.422-.797-2.72-2.656-2.547-3.656-2.547-8.734zm10.453.22v6.125h-2.062V23.91h5.766q2.578 0 4.03 1.313 1.453 1.313 1.453 3.47 0 2.28-1.422 3.516-1.422 1.22-4.078 1.22h-3.687zm0-1.687h3.703q1.656 0 2.53-.78.89-.78.89-2.25 0-1.39-.89-2.22-.875-.844-2.406-.875h-3.828v6.125zm23.97 7.812h-2.078v-7.234h-7.89v7.234h-2.062V23.91h2.063v6.72h7.89v-6.72h2.078v15.64zm6.03-6.125v6.125h-2.062V23.91h5.766q2.578 0 4.03 1.313 1.453 1.313 1.453 3.47 0 2.28-1.422 3.516-1.422 1.22-4.078 1.22h-3.687zm0-1.687h3.703q1.656 0 2.53-.78.89-.78.89-2.25 0-1.39-.89-2.22-.875-.844-2.406-.875h-3.828v6.125zm25.906-3.75q0 1.172-.625 2.094-.61.906-1.656 1.422 1.22.53 1.938 1.547.72 1 .72 2.28 0 2.03-1.375 3.234-1.375 1.203-3.61 1.203-2.25 0-3.61-1.203-1.36-1.22-1.36-3.234 0-1.266.688-2.28.703-1.03 1.922-1.562-1.047-.516-1.656-1.422-.594-.922-.594-2.078 0-1.97 1.266-3.125 1.28-1.172 3.344-1.172 2.063 0 3.328 1.172 1.28 1.156 1.28 3.125zm-1.625 7.297q0-1.312-.828-2.14-.828-.828-2.172-.828-1.344 0-2.156.828-.812.813-.812 2.14 0 1.328.78 2.094.797.766 2.203.766 1.406 0 2.188-.766.797-.766.797-2.094zm-2.984-9.953q-1.172 0-1.89.734-.72.72-.72 1.953 0 1.203.703 1.938.72.734 1.906.734 1.203 0 1.906-.734.72-.734.72-1.922 0-1.203-.75-1.953-.734-.75-1.875-.75zm7.375 13.172q0-.516.297-.86.313-.344.922-.344.625 0 .938.344.313.344.313.86 0 .5-.312.844-.312.328-.937.328-.61 0-.922-.328-.297-.344-.297-.844zm15.563-5.625q0 3.484-1.203 5.188-1.187 1.703-3.72 1.703-2.5 0-3.703-1.656-1.203-1.672-1.25-4.97v-2.656q0-3.437 1.188-5.11 1.203-1.687 3.75-1.687 2.516 0 3.703 1.625 1.203 1.61 1.234 4.984v2.578zm-1.984-2.72q0-2.516-.72-3.672-.703-1.156-2.234-1.156-1.53 0-2.234 1.156-.687 1.14-.72 3.516v3.188q0 2.53.734 3.75.734 1.203 2.234 1.203 1.47 0 2.188-1.14.72-1.14.75-3.594v-3.25zm8.516 3.563h-5.25v-1.625h5.25v1.625zm1.375-.078q0-2.672 1.266-4.297 1.28-1.64 3.328-1.64 2.047 0 3.234 1.406V23.05h1.984v16.5H518l-.094-1.25q-1.187 1.47-3.312 1.47-2.03 0-3.312-1.656-1.266-1.656-1.266-4.328v-.14zm2 .22q0 1.984.813 3.11.813 1.11 2.25 1.11 1.89 0 2.766-1.703v-5.344q-.89-1.64-2.734-1.64-1.47 0-2.28 1.14-.812 1.125-.812 3.328zm15.313 5.906q-2.36 0-3.844-1.547Q522 36.66 522 34.066v-.375q0-1.72.656-3.078.672-1.36 1.844-2.125 1.188-.78 2.578-.78 2.266 0 3.516 1.5 1.266 1.484 1.266 4.28v.813h-7.875q.047 1.72 1 2.78.97 1.063 2.453 1.063 1.047 0 1.78-.422.734-.437 1.28-1.14l1.203.938q-1.453 2.25-4.375 2.25zm-.25-10.422q-1.203 0-2.016.875-.812.875-1.016 2.453h5.828v-.156q-.094-1.516-.828-2.344-.72-.828-1.97-.828zm11.266 7.5l2.875-8.922h2.03l-4.172 11.625h-1.516l-4.203-11.625h2.03l2.953 8.922zm11.75-3.53q0 2.39-.64 4.594-.625 2.188-1.922 4.047-1.28 1.86-2.703 2.64l-.422-1.22q1.656-1.266 2.656-3.922 1.016-2.672 1.03-5.937v-.344q0-2.25-.484-4.187-.47-1.937-1.312-3.47-.828-1.547-1.89-2.406l.422-1.22q1.422.797 2.703 2.64 1.28 1.828 1.922 4.047.64 2.203.64 4.734z" class="H"/><defs ><path id="C" d="M113.05 120.5h-5.594v-.78l2.953-3.28q.656-.75.906-1.203.25-.47.25-.97 0-.672-.406-1.094-.39-.437-1.078-.437-.797 0-1.25.47-.453.453-.453 1.28H107.3q0-1.187.75-1.906.766-.734 2.03-.734 1.203 0 1.89.625.688.625.688 1.672 0 1.25-1.61 3l-2.28 2.47h4.28v.89zm1.547-.562q0-.28.156-.47.172-.187.5-.187.344 0 .516.188.172.188.172.47 0 .266-.172.453-.172.172-.516.172-.328 0-.5-.172-.156-.187-.156-.453zm7.016-3.187q-.328.406-.812.656-.47.234-1.03.234-.734 0-1.28-.36-.547-.36-.844-1.016-.297-.672-.297-1.47 0-.844.313-1.53.328-.687.922-1.047.61-.375 1.406-.375 1.266 0 1.984.953.734.953.734 2.578v.313q0 2.5-.984 3.64-.984 1.14-2.97 1.172h-.22v-.906h.234q1.344-.03 2.063-.703.72-.672.78-2.14zm-1.672 0q.547 0 1-.328.47-.344.688-.828v-.437q0-1.062-.47-1.734-.47-.672-1.172-.672-.72 0-1.156.547-.422.547-.422 1.453 0 .875.406 1.438.422.563 1.125.563z"/><path id="D" d="M184.345 166.5h-1.078v-7.22l-2.187.797v-.984l3.11-1.172h.156v8.578zm5.016-4.797h.813q.78-.016 1.22-.406.438-.39.438-1.062 0-1.5-1.5-1.5-.703 0-1.125.406-.406.406-.406 1.063h-1.094q0-1.016.734-1.687.75-.672 1.89-.672 1.203 0 1.89.64.688.64.688 1.78 0 .563-.36 1.078-.36.516-.984.78.703.22 1.078.734.39.516.39 1.266 0 1.14-.75 1.828-.75.672-1.953.672-1.187 0-1.953-.656-.75-.656-.75-1.72h1.094q0 .672.438 1.078.438.406 1.188.406.78 0 1.188-.406.422-.422.422-1.187 0-.734-.453-1.125-.453-.406-1.328-.422h-.812v-.89zm5.563 4.234q0-.28.156-.47.172-.187.5-.187.344 0 .516.188.172.188.172.47 0 .266-.172.453-.172.172-.516.172-.328 0-.5-.172-.156-.187-.156-.453zm7.016-3.187q-.328.406-.812.656-.47.234-1.03.234-.734 0-1.28-.36-.547-.36-.844-1.016-.297-.672-.297-1.47 0-.844.313-1.53.328-.687.922-1.047.61-.375 1.406-.375 1.266 0 1.984.953.734.953.734 2.578v.313q0 2.5-.984 3.64-.984 1.14-2.97 1.172h-.22v-.906h.234q1.344-.03 2.063-.703.72-.672.78-2.14zm-1.672 0q.547 0 1-.328.47-.344.688-.828v-.437q0-1.062-.47-1.734-.47-.672-1.172-.672-.72 0-1.156.547-.422.547-.422 1.453 0 .875.406 1.438.422.563 1.125.563zm8.078 3.75h-1.078v-7.22l-2.187.797v-.984l3.11-1.172h.156v8.578z"/><path id="E" d="M480.703 208.22l.438-4.25h4.375v1h-3.453l-.266 2.328q.64-.375 1.438-.375 1.156 0 1.844.78.688.766.688 2.078 0 1.313-.72 2.078-.703.766-1.984.766-1.125 0-1.844-.625-.72-.64-.812-1.75h1.016q.11.734.53 1.11.422.375 1.11.375.75 0 1.188-.516.438-.516.438-1.422 0-.86-.47-1.375-.47-.516-1.25-.516-.703 0-1.11.297l-.28.234-.875-.22zm10.063 4.28h-1.078v-7.22l-2.187.797v-.984l3.11-1.172h.156v8.578zm3.578-.562q0-.28.156-.47.172-.187.5-.187.344 0 .516.188.172.188.172.47 0 .266-.172.453-.172.172-.516.172-.328 0-.5-.172-.156-.187-.156-.453zm7.125-7.97v.906h-.203q-1.266.03-2.016.766-.75.72-.875 2.03.688-.766 1.844-.766 1.11 0 1.78.78.672.78.672 2.03 0 1.313-.72 2.11-.72.797-1.937.797-1.22 0-1.984-.937-.75-.953-.75-2.437v-.406q0-2.36 1-3.61 1-1.25 2.984-1.266h.203zm-1.422 3.844q-.562 0-1.03.328-.47.328-.656.844v.39q0 1.063.47 1.703.484.64 1.188.64.734 0 1.156-.53.422-.547.422-1.422 0-.875-.422-1.406-.422-.547-1.125-.547zm8.422-3.844v.906h-.203q-1.266.03-2.016.766-.75.72-.875 2.03.688-.766 1.844-.766 1.11 0 1.78.78.672.78.672 2.03 0 1.313-.72 2.11-.72.797-1.937.797-1.22 0-1.984-.937-.75-.953-.75-2.437v-.406q0-2.36 1-3.61 1-1.25 2.984-1.266h.203zm-1.422 3.844q-.562 0-1.03.328-.47.328-.656.844v.39q0 1.063.47 1.703.484.64 1.188.64.734 0 1.156-.53.422-.547.422-1.422 0-.875-.422-1.406-.422-.547-1.125-.547z"/><path id="F" d="M285.522 258.5h-5.594v-.78l2.953-3.28q.656-.75.906-1.203.25-.47.25-.97 0-.672-.406-1.094-.39-.437-1.078-.437-.797 0-1.25.47-.453.453-.453 1.28h-1.078q0-1.187.75-1.906.766-.734 2.03-.734 1.203 0 1.89.625.688.625.688 1.672 0 1.25-1.61 3l-2.28 2.47h4.28v.89zm5.672-8.53v.906h-.203q-1.266.03-2.016.766-.75.72-.875 2.03.688-.766 1.844-.766 1.11 0 1.78.78.672.78.672 2.03 0 1.313-.72 2.11-.72.797-1.937.797-1.22 0-1.984-.937-.75-.953-.75-2.437v-.406q0-2.36 1-3.61 1-1.25 2.984-1.266h.203zm-1.422 3.844q-.562 0-1.03.328-.47.328-.656.844v.39q0 1.063.47 1.703.484.64 1.188.64.734 0 1.156-.53.422-.547.422-1.422 0-.875-.422-1.406-.422-.547-1.125-.547zm4.297 4.125q0-.28.156-.47.172-.187.5-.187.344 0 .516.188.172.188.172.47 0 .266-.172.453-.172.172-.516.172-.328 0-.5-.172-.156-.187-.156-.453zm7.438-2.297h1.188v.875h-1.187v1.984h-1.078v-1.984h-3.89v-.64l3.813-5.906h1.156v5.672zm-3.734 0h2.656v-4.187l-.14.234-2.516 3.953zm9.72 2.86h-1.078v-7.22l-2.187.797v-.984l3.11-1.172h.156v8.578z"/></defs></svg>